<?xml version="1.0" encoding="UTF-8" standalone="no"?>
<svg width="80px" height="80px" viewBox="0 0 80 80" version="1.1" xmlns="http://www.w3.org/2000/svg" xmlns:xlink="http://www.w3.org/1999/xlink" xmlns:sketch="http://www.bohemiancoding.com/sketch/ns">
    <!-- Generator: Sketch 3.5.1 (25234) - http://www.bohemiancoding.com/sketch -->
    <title>maintenance</title>
    <desc>Created with Sketch.</desc>
    <defs></defs>
    <g id="Welcome" stroke="none" stroke-width="1" fill="none" fill-rule="evenodd" sketch:type="MSPage">
        <g id="maintenance" sketch:type="MSLayerGroup" transform="translate(16.000000, 16.000000)" stroke="#000000">
            <path d="M38.8,9.2 L38.8,9.2 C37.5328,7.9328 37.5328,5.86752 38.8,4.60032 L41.73248,1.6672 C42.0672,1.33248 41.86752,0.8 41.40032,0.66752 C38.53248,-0.13248 35.2672,0.60032 32.99968,2.8672 C30.53248,5.33504 29.9328,8.8672 31.00032,11.86752 C31.06752,12.0672 31.06752,12.33472 30.8672,12.53504 L12.53248,30.8672 C12.3328,31.06752 12.13248,31.06752 11.86496,31.00032 C8.79744,29.86752 5.26528,30.53248 2.86528,32.99968 C0.53248,35.33248 -0.13248,38.53248 0.66752,41.46752 C0.8,41.93472 1.40032,42.0672 1.73504,41.73504 L4.66752,38.8 C5.93472,37.5328 8,37.5328 9.2672,38.8 C10.53504,40.0672 10.53504,42.13248 9.2672,43.39968 L6.33472,46.3328 C6.00256,46.66496 6.13504,47.26528 6.60224,47.39968 C9.47008,48.19968 12.73472,47.5328 15.00224,45.2 C17.47008,42.7328 18.06976,39.2 17.00224,36.19968 C16.93504,36 16.93504,35.73248 17.13472,35.5328 L35.53472,17.1328 C35.73504,16.93248 35.93472,16.93248 36.20224,16.99968 C39.26976,18.13248 42.80256,17.46752 45.20256,15.00032 C47.47008,12.7328 48.20224,9.46752 47.40224,6.59968 C47.26976,6.13248 46.67008,6 46.33472,6.3328 L43.33248,9.2 C42.0672,10.53248 40.0672,10.53248 38.8,9.2 L38.8,9.2 Z" id="Fill-1" sketch:type="MSShapeGroup"></path>
        </g>
    </g>
</svg>