<?xml version="1.0" encoding="UTF-8" standalone="no"?>
<svg width="136px" height="45px" viewBox="0 0 136 45" version="1.1" xmlns="http://www.w3.org/2000/svg" xmlns:xlink="http://www.w3.org/1999/xlink" xmlns:sketch="http://www.bohemiancoding.com/sketch/ns">
    <!-- Generator: Sketch 3.4.4 (17249) - http://www.bohemiancoding.com/sketch -->
    <title>WEB</title>
    <desc>Created with Sketch.</desc>
    <defs></defs>
    <g id="Welcome" stroke="none" stroke-width="1" fill="none" fill-rule="evenodd" sketch:type="MSPage">
        <g id="Group" sketch:type="MSLayerGroup" fill="#FFFFFF">
            <path d="M33.9927637,37.0524902 L27.0656055,11.2039673 L20.0507617,37.0524902 C19.50516,39.0129493 19.0716081,40.4195575 18.7500928,41.2723572 C18.4285775,42.1251569 17.8683699,42.8897244 17.0694531,43.5660828 C16.2705364,44.2424411 15.2085776,44.5806152 13.8835449,44.5806152 C12.8118273,44.5806152 11.9301093,44.3796712 11.2383643,43.9777771 C10.5466193,43.575883 9.98641165,43.0073584 9.55772461,42.2721863 C9.12903757,41.5370141 8.77829889,40.664623 8.50549805,39.6549866 C8.2326972,38.6453502 7.98912868,37.709245 7.77478516,36.8466431 L0.643027344,7.82219238 C0.214340304,6.13619762 0,4.85211623 0,3.96990967 C0,2.85244803 0.389709645,1.91144181 1.16914063,1.14686279 C1.94857161,0.382283775 2.91310298,0 4.06276367,0 C5.64111141,0 6.70307019,0.5097117 7.24867188,1.52915039 C7.79427356,2.54858908 8.27166788,4.02871344 8.68086914,5.96956787 L14.2927441,31.1417358 L20.576875,7.58693848 C21.0445336,5.78331618 21.4634715,4.41101545 21.8337012,3.46999512 C22.2039309,2.52897479 22.8079808,1.7153965 23.6458691,1.02923584 C24.4837574,0.343075182 25.6236582,0 27.0656055,0 C28.5270386,0 29.6620679,0.357778405 30.4707275,1.07334595 C31.2793872,1.78891349 31.8395948,2.56818426 32.1513672,3.41118164 C32.4631396,4.25417902 32.8820774,5.64608405 33.4081934,7.58693848 L39.7507813,31.1417358 L45.3626563,5.96956787 C45.6354571,4.65606033 45.8936397,3.62683478 46.1372119,2.88186035 C46.3807841,2.13688592 46.799722,1.47033985 47.3940381,0.882202148 C47.9883542,0.294064442 48.8505868,0 49.9807617,0 C51.1109366,0 52.0705966,0.377382701 52.8597705,1.13215942 C53.6489444,1.88693615 54.0435254,2.83284344 54.0435254,3.96990967 C54.0435254,4.77369787 53.8291851,6.05777926 53.400498,7.82219238 L46.2687402,36.8466431 C45.7815959,38.8071021 45.3772721,40.2431168 45.0557568,41.1547302 C44.7342416,42.0663437 44.1886481,42.8652187 43.41896,43.5513794 C42.6492719,44.2375401 41.5629562,44.5806152 40.1599805,44.5806152 C38.8349478,44.5806152 37.772989,44.2473422 36.9740723,43.5807861 C36.1751555,42.9142301 35.6198193,42.1643657 35.3080469,41.3311707 C34.9962745,40.4979756 34.5578511,39.071763 33.9927637,37.0524902 L33.9927637,37.0524902 Z M88.0362891,7.46931152 L68.4824121,7.46931152 L68.4824121,18.0557373 L86.4871777,18.0557373 C87.8122104,18.0557373 88.8010986,18.3547028 89.4538721,18.9526428 C90.1066455,19.5505828 90.4330273,20.3396557 90.4330273,21.3198853 C90.4330273,22.3001148 90.1115169,23.0989898 89.4684863,23.7165344 C88.8254558,24.334079 87.8316962,24.6428467 86.4871777,24.6428467 L68.4824121,24.6428467 L68.4824121,36.9054565 L88.7085449,36.9054565 C90.0725491,36.9054565 91.1004083,37.2240264 91.7921533,37.8611755 C92.4838983,38.4983247 92.8297656,39.3462105 92.8297656,40.4048584 C92.8297656,41.4242971 92.4838983,42.2525786 91.7921533,42.8897278 C91.1004083,43.526877 90.0725491,43.8454468 88.7085449,43.8454468 L65.1211328,43.8454468 C63.2310127,43.8454468 61.8719003,43.4239544 61.0437549,42.580957 C60.2156095,41.7379597 59.801543,40.3754611 59.801543,38.4934204 L59.801543,6.08719482 C59.801543,4.83250105 59.986655,3.80817658 60.3568848,3.01419067 C60.7271145,2.22020477 61.3068076,1.64187803 62.0959814,1.27919312 C62.8851553,0.916508196 63.893529,0.735168457 65.1211328,0.735168457 L88.0362891,0.735168457 C89.4197791,0.735168457 90.4476382,1.04393612 91.1198975,1.66148071 C91.7921567,2.2790253 92.1282813,3.08770252 92.1282813,4.08753662 C92.1282813,5.10697531 91.7921567,5.92545468 91.1198975,6.54299927 C90.4476382,7.16054386 89.4197791,7.46931152 88.0362891,7.46931152 L88.0362891,7.46931152 Z M118.024746,43.8454468 L104.930371,43.8454468 C103.040251,43.8454468 101.690881,43.4190533 100.882222,42.5662537 C100.073562,41.713454 99.6692383,40.3558565 99.6692383,38.4934204 L99.6692383,6.08719482 C99.6692383,4.18554957 100.083305,2.81814992 100.91145,1.98495483 C101.739596,1.15175975 103.079223,0.735168457 104.930371,0.735168457 L118.813916,0.735168457 C120.859922,0.735168457 122.633101,0.862596382 124.133506,1.11745605 C125.63391,1.37231573 126.978409,1.86242313 128.167041,2.58779297 C129.180301,3.19553527 130.076633,3.96500389 130.856064,4.89622192 C131.635495,5.82743996 132.229803,6.85666551 132.639004,7.98392944 C133.048205,9.11119338 133.252803,10.3021544 133.252803,11.5568481 C133.252803,15.869858 131.1094,19.0261497 126.822529,21.0258179 C132.453918,22.8294402 135.26957,26.3386092 135.26957,31.5534302 C135.26957,33.9647948 134.655778,36.1359706 133.428174,38.0670227 C132.20057,39.9980748 130.544304,41.4242874 128.459326,42.3457031 C127.153779,42.8946317 125.653397,43.2818165 123.958135,43.5072693 C122.262872,43.7327221 120.285096,43.8454468 118.024746,43.8454468 L118.024746,43.8454468 Z M117.381719,24.7016602 L108.350107,24.7016602 L108.350107,37.2877441 L117.674004,37.2877441 C123.539222,37.2877441 126.471787,35.160678 126.471787,30.9064819 C126.471787,28.7303724 125.711853,27.1522266 124.191963,26.1719971 C122.672072,25.1917676 120.402014,24.7016602 117.381719,24.7016602 L117.381719,24.7016602 Z M108.350107,7.29287109 L108.350107,18.4380249 L116.300264,18.4380249 C118.463185,18.4380249 120.134065,18.2321798 121.312954,17.8204834 C122.491843,17.408787 123.393047,16.6246152 124.016592,15.4679443 C124.503736,14.6445515 124.747305,13.7231496 124.747305,12.7037109 C124.747305,10.5276014 123.977628,9.08178458 122.438252,8.36621704 C120.898876,7.6506495 118.550875,7.29287109 115.39418,7.29287109 L108.350107,7.29287109 Z" id="WEB" sketch:type="MSShapeGroup"></path>
        </g>
    </g>
</svg>